<svg xmlns="http://www.w3.org/2000/svg" width="599.745" height="400.12" viewBox="0 0 599.745 400.12">
  <defs>
    <style>
      .cls-1, .cls-9 {
        fill: #c6ff00;
      }

      .cls-2, .cls-3, .cls-7 {
        fill: #fff;
      }

      .cls-2 {
        opacity: 0.8;
      }

      .cls-3 {
        opacity: 0.64;
      }

      .cls-4 {
        fill: #b8b8b8;
      }

      .cls-12, .cls-13, .cls-14, .cls-5 {
        fill: none;
      }

      .cls-10, .cls-11, .cls-12, .cls-14, .cls-15, .cls-5, .cls-7, .cls-8, .cls-9 {
        stroke: #263238;
      }

      .cls-5 {
        stroke-miterlimit: 10;
      }

      .cls-10, .cls-11, .cls-12, .cls-13, .cls-15, .cls-5, .cls-7, .cls-8, .cls-9 {
        stroke-width: 1.05px;
      }

      .cls-6 {
        opacity: 0.3;
      }

      .cls-10, .cls-11, .cls-12, .cls-13, .cls-14, .cls-15, .cls-7, .cls-8, .cls-9 {
        stroke-linecap: round;
        stroke-linejoin: round;
      }

      .cls-8 {
        fill: #263238;
      }

      .cls-10 {
        fill: #fe9004;
      }

      .cls-11 {
        fill: #737373;
      }

      .cls-13 {
        stroke: #fff;
      }

      .cls-14 {
        stroke-width: 3.14px;
      }

      .cls-15 {
        fill: #0f2944;
      }
    </style>
  </defs>
  <g id="opps" transform="translate(-0.001 -0.003)">
    <g id="Background_Simple" data-name="Background Simple" transform="translate(65.91 0.003)">
      <path id="Path_19437" data-name="Path 19437" class="cls-1" d="M85.464,370.412s32.042,73.057,113.058,96.948,167.531-7.947,238.229-31.876,107.88-85.117,92.128-147.857S453.567,229.4,398.018,173.685,336.138,94.72,259.159,78.263,97.922,126.6,76.851,218.352,85.464,370.412,85.464,370.412Z" transform="translate(-69.294 -75.703)"/>
      <path id="Path_19438" data-name="Path 19438" class="cls-2" d="M85.464,370.412s32.042,73.057,113.058,96.948,167.531-7.947,238.229-31.876,107.88-85.117,92.128-147.857S453.567,229.4,398.018,173.685,336.138,94.72,259.159,78.263,97.922,126.6,76.851,218.352,85.464,370.412,85.464,370.412Z" transform="translate(-69.294 -75.703)"/>
    </g>
    <g id="Trees" transform="translate(0.001 102.893)">
      <path id="Path_19439" data-name="Path 19439" class="cls-1" d="M405.817,249.057s29.376,2.909,44.257,21.122c0,0,15.739-21.1,43.988-20.661a57.1,57.1,0,1,0-88.258-.41Z" transform="translate(87.802 -155.979)"/>
      <path id="Path_19440" data-name="Path 19440" class="cls-3" d="M405.817,249.057s29.376,2.909,44.257,21.122c0,0,15.739-21.1,43.988-20.661a57.1,57.1,0,1,0-88.258-.41Z" transform="translate(87.802 -155.979)"/>
      <path id="Path_19441" data-name="Path 19441" class="cls-4" d="M419.12,83.42l-1,190.383h4.96Z" transform="translate(117.782 -79.395)"/>
      <path id="Path_19442" data-name="Path 19442" class="cls-4" d="M438.026,245.874s9.908-17.854,27.762-23.314c0,0-18.841,4.473-28.2,19.841Z" transform="translate(100.362 -137.224)"/>
      <path id="Path_19443" data-name="Path 19443" class="cls-4" d="M438.026,206.414s9.908-17.854,27.762-23.314c0,0-18.841,4.46-28.2,19.841Z" transform="translate(100.362 -148.339)"/>
      <path id="Path_19444" data-name="Path 19444" class="cls-4" d="M438.026,226.124s9.908-17.854,27.762-23.314c0,0-18.841,4.473-28.2,19.841Z" transform="translate(100.362 -142.787)"/>
      <path id="Path_19445" data-name="Path 19445" class="cls-4" d="M442.67,216.461s-9.574-17.841-26.8-23.3c0,0,18.187,4.46,27.274,19.841Z" transform="translate(94.244 -145.506)"/>
      <path id="Path_19446" data-name="Path 19446" class="cls-4" d="M442.67,235.811s-9.574-17.854-26.8-23.3c0,0,18.187,4.46,27.274,19.828Z" transform="translate(94.244 -140.055)"/>
      <path id="Path_19447" data-name="Path 19447" class="cls-1" d="M30.687,249.057s29.376,2.909,44.257,21.122c0,0,15.739-21.1,43.988-20.661a57.1,57.1,0,1,0-88.258-.41Z" transform="translate(-17.871 -155.979)"/>
      <path id="Path_19448" data-name="Path 19448" class="cls-3" d="M30.687,249.057s29.376,2.909,44.257,21.122c0,0,15.739-21.1,43.988-20.661a57.1,57.1,0,1,0-88.258-.41Z" transform="translate(-17.871 -155.979)"/>
      <path id="Path_19449" data-name="Path 19449" class="cls-4" d="M44,83.42,43,273.8h4.96Z" transform="translate(12.112 -79.395)"/>
      <path id="Path_19450" data-name="Path 19450" class="cls-4" d="M62.906,245.874s9.908-17.854,27.762-23.314c0,0-18.841,4.473-28.2,19.841Z" transform="translate(-5.307 -137.224)"/>
      <path id="Path_19451" data-name="Path 19451" class="cls-4" d="M62.906,206.414S72.813,188.56,90.667,183.1c0,0-18.841,4.46-28.2,19.841Z" transform="translate(-5.307 -148.339)"/>
      <path id="Path_19452" data-name="Path 19452" class="cls-4" d="M62.906,226.124s9.908-17.854,27.762-23.314c0,0-18.841,4.473-28.2,19.841Z" transform="translate(-5.307 -142.787)"/>
      <path id="Path_19453" data-name="Path 19453" class="cls-4" d="M67.55,216.461s-9.574-17.841-26.8-23.3c0,0,18.187,4.46,27.274,19.841Z" transform="translate(-11.426 -145.506)"/>
      <path id="Path_19454" data-name="Path 19454" class="cls-4" d="M67.55,235.811s-9.574-17.854-26.8-23.3c0,0,18.187,4.46,27.274,19.828Z" transform="translate(-11.426 -140.055)"/>
      <path id="Path_19455" data-name="Path 19455" class="cls-1" d="M312.176,259.744s24.045,2.371,36.221,17.277c0,0,12.881-17.265,36-16.918a46.731,46.731,0,1,0-72.236-.32Z" transform="translate(62.078 -148.21)"/>
      <path id="Path_19456" data-name="Path 19456" class="cls-3" d="M312.176,259.744s24.045,2.371,36.221,17.277c0,0,12.881-17.265,36-16.918a46.731,46.731,0,1,0-72.236-.32Z" transform="translate(62.078 -148.21)"/>
      <path id="Path_19457" data-name="Path 19457" class="cls-4" d="M319.818,110.38l-.807,155.829h4.063Z" transform="translate(89.863 -71.8)"/>
      <path id="Path_19458" data-name="Path 19458" class="cls-4" d="M338.536,257.094s8.126-14.611,22.724-19.084c0,0-15.38,3.653-23.071,16.239Z" transform="translate(72.362 -132.872)"/>
      <path id="Path_19459" data-name="Path 19459" class="cls-4" d="M338.536,224.792s8.126-14.611,22.724-19.072c0,0-15.38,3.653-23.071,16.226Z" transform="translate(72.362 -141.968)"/>
      <path id="Path_19460" data-name="Path 19460" class="cls-4" d="M338.536,240.944s8.126-14.611,22.724-19.084c0,0-15.38,3.653-23.071,16.239Z" transform="translate(72.362 -137.421)"/>
      <path id="Path_19461" data-name="Path 19461" class="cls-4" d="M342.34,233.022s-7.831-14.611-21.93-19.072c0,0,14.881,3.653,22.327,16.226Z" transform="translate(67.353 -139.649)"/>
      <path id="Path_19462" data-name="Path 19462" class="cls-4" d="M342.34,248.852s-7.831-14.611-21.93-19.072c0,0,14.881,3.653,22.327,16.239Z" transform="translate(67.353 -135.19)"/>
      <path id="Path_19463" data-name="Path 19463" class="cls-1" d="M130.666,259.744s24.045,2.371,36.221,17.277c0,0,12.817-17.265,36-16.918a46.731,46.731,0,1,0-72.236-.32Z" transform="translate(10.947 -148.21)"/>
      <path id="Path_19464" data-name="Path 19464" class="cls-3" d="M130.666,259.744s24.045,2.371,36.221,17.277c0,0,12.817-17.265,36-16.918a46.731,46.731,0,1,0-72.236-.32Z" transform="translate(10.947 -148.21)"/>
      <path id="Path_19465" data-name="Path 19465" class="cls-4" d="M138.32,110.38l-.82,155.829h4.063Z" transform="translate(38.732 -71.8)"/>
      <path id="Path_19466" data-name="Path 19466" class="cls-4" d="M157.076,257.094S165.2,242.483,179.8,238.01c0,0-15.38,3.653-23.071,16.239Z" transform="translate(21.245 -132.872)"/>
      <path id="Path_19467" data-name="Path 19467" class="cls-4" d="M157.076,224.792S165.2,210.18,179.8,205.72c0,0-15.38,3.653-23.071,16.226Z" transform="translate(21.245 -141.968)"/>
      <path id="Path_19468" data-name="Path 19468" class="cls-4" d="M157.076,240.944S165.2,226.333,179.8,221.86c0,0-15.38,3.653-23.071,16.239Z" transform="translate(21.245 -137.421)"/>
      <path id="Path_19469" data-name="Path 19469" class="cls-4" d="M160.817,233.008S153,218.4,138.9,214c0,0,14.88,3.653,22.327,16.226Z" transform="translate(16.223 -139.635)"/>
      <path id="Path_19470" data-name="Path 19470" class="cls-4" d="M160.82,248.852s-7.831-14.611-21.93-19.072c0,0,14.88,3.653,22.327,16.239Z" transform="translate(16.22 -135.19)"/>
      <line id="Line_50" data-name="Line 50" class="cls-5" x2="553.103" transform="translate(21.66 195.088)"/>
    </g>
    <g id="Characters" transform="translate(5.947 42.987)">
      <path id="Path_19483" data-name="Path 19483" class="cls-6" d="M175.791,357.968c0,3.845-23.622,6.908-52.78,6.908s-52.78-3.089-52.78-6.908,23.634-6.908,52.78-6.908S175.791,354.162,175.791,357.968Z" transform="translate(-9.067 -41.12)"/>
      <path id="Path_19484" data-name="Path 19484" class="cls-6" d="M262,357.968c0,3.845-23.634,6.908-52.78,6.908s-52.78-3.089-52.78-6.908,23.635-6.908,52.78-6.908S262,354.162,262,357.968Z" transform="translate(15.218 -41.12)"/>
      <path id="Path_19485" data-name="Path 19485" class="cls-6" d="M376.2,357.968c0,3.845-23.622,6.908-52.767,6.908s-52.78-3.089-52.78-6.908,23.622-6.908,52.78-6.908S376.2,354.162,376.2,357.968Z" transform="translate(47.39 -41.12)"/>
      <path id="Path_19486" data-name="Path 19486" class="cls-6" d="M471.612,357.968c0,3.845-23.635,6.908-52.78,6.908S366,361.788,366,357.968s23.635-6.908,52.78-6.908S471.612,354.162,471.612,357.968Z" transform="translate(74.25 -41.12)"/>
      <path id="Path_19487" data-name="Path 19487" class="cls-7" d="M317.718,198.77s-2.166,8.972-2.166,10.484a12.9,12.9,0,0,1-.308,2.781s-4.627,5.55-4.012,7.088a7.472,7.472,0,0,0,3.089,2.768s2.461,8.972,4.935,9.561a59.392,59.392,0,0,0,7.69.923l.923,7.4,12.33-1.846-3.076-11.1,1.282-9.561s2.153-4,0-10.471-6.78-6.78-9.869-6.78A106.47,106.47,0,0,1,317.718,198.77Z" transform="translate(58.806 -84.02)"/>
      <path id="Path_19488" data-name="Path 19488" class="cls-8" d="M322.916,195.172s-10.792-.32-10.484,2.461,11.407,6.408,11.407,6.408-3.7,2.461-1.858,4.935,6.165,4.627,6.165,4.627-1.282,5.242.628,5.55,3.076-2.474,3.384-3.4,3.7-.615,4.627,1.846a12.816,12.816,0,0,1,.923,4.012s3.7-11.1,4.319-16.034S328.773,195.172,322.916,195.172Z" transform="translate(59.158 -85.036)"/>
      <path id="Path_19489" data-name="Path 19489" class="cls-7" d="M325.94,215.161s3.73-8.2,5.96-4.165,1.282,8.241-.91,8.69-4.025.884-4.025.884" transform="translate(62.965 -80.891)"/>
      <path id="Path_19490" data-name="Path 19490" class="cls-8" d="M322.922,281.5c-.6.7-10.484,21.891-11.715,28.979s-9.241,49.332-9.561,51.178-17.252,5.55-18.495,5.857,1.282,3.7,4.935,4.627,14.188,5.242,16.662,2.768,5.857-16.342,6.78-17.88S329.8,314.609,329.8,314.609s8.895-19.623,10.741-21.481-2.192-10.074-3.743-12.548S327.241,276.569,322.922,281.5Z" transform="translate(50.821 -61.628)"/>
      <path id="Path_19491" data-name="Path 19491" class="cls-8" d="M313.07,282.347s4.319,20.661,6.473,28.056a59.046,59.046,0,0,0,8.972,17.264c2.474,3.4,14.5,33.324,14.5,33.324l1.846,4.627s-.615,1.846-4,4.306-12.958,6.473-10.484,7.408,12.33.923,16.957.615a16.021,16.021,0,0,0,10.471-4.935c1.858-2.166-3.076-8.331-3.076-9.561s-10.792-38.835-11.407-40.694-3.7-15.1-3.7-15.1V292.6s1.551-2.769,1.551-8.972-4.627-7.408-4.627-7.408l-25.288,2.474Z" transform="translate(58.827 -62.202)"/>
      <path id="Path_19492" data-name="Path 19492" class="cls-9" d="M311,279.962s.628,5.242,2.474,5.55,20.956,5.55,29.287-.615c0,0,1.538-4.627.615-5.857s-3.089-.615-14.176-.615S311,278.424,311,279.962Z" transform="translate(58.756 -61.625)"/>
      <path id="Path_19493" data-name="Path 19493" class="cls-10" d="M339.724,225.71s-11.407,1.538-16.342,6.408-9.241,13.881-11.394,22.2-3.7,38.848-.628,40.386,28.979,3.089,33.324,1.282-.308-16.342-.308-21.891,4.935-24.352,4.012-34.824S339.724,225.71,339.724,225.71Z" transform="translate(58.371 -76.431)"/>
      <path id="Path_19494" data-name="Path 19494" class="cls-10" d="M312.029,257.471c-.141-12.689-5.319-23.519-12.2-28.2V226.71l-18.969.192c-10.677.115-19.225,14.1-19.008,31.145s8.972,30.85,19.661,30.761l18.969-.192v-2.563C307.146,281.092,312.093,270.159,312.029,257.471Z" transform="translate(44.91 -76.149)"/>
      <path id="Path_19495" data-name="Path 19495" class="cls-7" d="M316.565,257.758c-.141-13.33-5.281-24.711-12.509-29.658v-2.73l-8.126.09c-11.228.115-20.161,14.765-19.969,32.722s9.433,32.414,20.661,32.3l8.126-.09v-2.717C311.81,282.572,316.706,271.037,316.565,257.758Z" transform="translate(48.885 -76.527)"/>
      <path id="Path_19496" data-name="Path 19496" class="cls-11" d="M322.93,257.669c.192,17.944-8.754,32.606-19.969,32.722S282.454,276.048,282.3,258.1s8.754-32.606,19.969-32.735S322.712,239.712,322.93,257.669Z" transform="translate(50.671 -76.527)"/>
      <path id="Path_19497" data-name="Path 19497" class="cls-8" d="M314.594,253.521c.09,8.5-4.153,15.444-9.472,15.509s-9.7-6.806-9.792-15.38,4.153-15.38,9.472-15.509S314.5,245.01,314.594,253.521Z" transform="translate(54.342 -72.93)"/>
      <path id="Path_19498" data-name="Path 19498" class="cls-8" d="M441.407,305.24a155.737,155.737,0,0,0,1.346-23.84c-4.166,1.923-28.466,2.627-30.7,2.679s-26.531-.756-30.7-2.679a155.721,155.721,0,0,0,1.282,23.84c1.679,10.395,16.444,52.011,16.777,54.024a44.786,44.786,0,0,0,1.679,5.716s-8.4,6.037-12.086,8.382-1,3.358,2.692,3.358,11.407-1.013,13.753-1.013c2.076,0,5.691-1.807,6.537-2.243.846.436,4.46,2.243,6.524,2.243,2.358,0,10.074,1.013,13.765,1.013s6.408-1.013,2.692-3.358-12.086-8.382-12.086-8.382a44.776,44.776,0,0,0,1.679-5.716C424.962,357.212,439.728,315.6,441.407,305.24Z" transform="translate(78.565 -60.743)"/>
      <path id="Path_19499" data-name="Path 19499" class="cls-10" d="M410.764,230.49s-12.984,4.242-19.687,8.5-13.432,27.3-13.432,28.2a28.724,28.724,0,0,1-1.564,4.691s-6.716-1.564-8.049,4.025,6.7,12.753,10.958,12.984,5.588-1.115,5.588-1.115-2.679,5.37-1.564,7.6,10.523,10.523,29.094,10.254,32.042-3.358,34-6.037,2.243-8.28,2.243-8.28,6.934-1.794,9.395-6.268,2.012-9.177.666-13.868-8.28-18.315-12.971-25.929-14.547-11.856-19.225-13.2S413.892,230.49,410.764,230.49Z" transform="translate(74.781 -75.084)"/>
      <path id="Path_19500" data-name="Path 19500" class="cls-7" d="M406.65,249.331c1.858-.615,7.69-5.793,9.933-10.971a24.954,24.954,0,0,0,1.858-6.216l-.295-.09c-4.691-1.346-12.3-1.564-15.38-1.564,0,0-2.717.884-6.306,2.256a23.07,23.07,0,0,0,1.538,8.1C400.023,246.024,404.842,249.959,406.65,249.331Z" transform="translate(82.83 -75.084)"/>
      <path id="Path_19501" data-name="Path 19501" class="cls-12" d="M421.06,253.35s5.37,28.646,11.458,31.594" transform="translate(89.76 -68.645)"/>
      <path id="Path_19502" data-name="Path 19502" class="cls-12" d="M380.91,281.279s6.716-25.288,7.165-27.749" transform="translate(78.45 -68.594)"/>
      <path id="Path_19503" data-name="Path 19503" class="cls-12" d="M428.647,263.45s-3.717.833-3.717,3.525" transform="translate(90.85 -65.8)"/>
      <path id="Path_19504" data-name="Path 19504" class="cls-12" d="M378.56,263.77s4.14,2.692,3.73,6.831" transform="translate(77.788 -65.709)"/>
      <path id="Path_19505" data-name="Path 19505" class="cls-10" d="M404.2,357.358c2.076,0,5.691-1.807,6.537-2.243.846.436,4.46,2.243,6.524,2.243,2.358,0,10.074,1.013,13.765,1.013s6.408-1.013,2.692-3.358c-3.217-2.038-9.959-6.857-11.676-8.087-3.961,3.614-11.792,2.717-11.792,2.717a40.213,40.213,0,0,1-4.7-1c-2.345-.679-5.7-2.012-5.7-2.012s-8.4,6.037-12.086,8.382-1,3.358,2.692,3.358S401.856,357.358,404.2,357.358Z" transform="translate(79.882 -42.368)"/>
      <line id="Line_51" data-name="Line 51" class="cls-13" y1="58.522" transform="translate(490.133 245.791)"/>
      <path id="Path_19506" data-name="Path 19506" class="cls-12" d="M387.537,279.339l-.487-5.473v-2.9" transform="translate(103.083 33.343)"/>
      <line id="Line_52" data-name="Line 52" class="cls-13" x2="9.741" transform="translate(485.43 243.779)"/>
      <path id="Path_19507" data-name="Path 19507" class="cls-8" d="M392.657,206.014s-6.972,4.178-5.934,7.844,4.191,4.371,3.5,6.408-3.115,3.32-.359,4.6a23.529,23.529,0,0,0,4.9,1.576s2.563,8.895,6.972,10.459,12.048.526,17.457-.167a9.036,9.036,0,0,0,7.844-6.639c.525-1.91-2.269.359-3.666-1.743s.7-7.5,2.269-12.215-3.14-13.612-9.241-16.572S398.643,198.158,392.657,206.014Z" transform="translate(80.058 -84.189)"/>
      <path id="Path_19508" data-name="Path 19508" class="cls-7" d="M400.867,229.265a47.254,47.254,0,0,0-1.794,8.972c-.231,3.845,2.909,8.062,6.267,7.831s6.255-6.934,6.7-10.254-1.115-12.3-1.115-12.3-5.127.231-7.165,2.012A12.406,12.406,0,0,0,400.867,229.265Z" transform="translate(83.563 -77.051)"/>
      <path id="Path_19509" data-name="Path 19509" class="cls-7" d="M398.463,208.1s.167,5.229,5.409,10.254a32.414,32.414,0,0,0,10.984,6.985,9.651,9.651,0,0,1-.871,3.307,2.422,2.422,0,0,1-2.435,1.282h-1.756s-2.563,6.011-5.665,6.883-10.728.269-11.779-7.408-1.218-13.958-.346-15.534S398.463,208.1,398.463,208.1Z" transform="translate(81.417 -81.392)"/>
      <path id="Path_19510" data-name="Path 19510" class="cls-7" d="M440.91,263.479a14.1,14.1,0,0,0,1.423-5.127c0-2.333-4.332-5.678-5.127-6.511s-1.589-.743-1.756.423a4.794,4.794,0,0,0,1.5,3.5,3.922,3.922,0,0,1,1.346,2.012c.077.577-1.435,3.409-.679,5.242S440.5,265.4,440.91,263.479Z" transform="translate(93.814 -69.225)"/>
      <path id="Path_19511" data-name="Path 19511" class="cls-14" d="M304.28,250.59s18.867,6.037,30.21,20.135,18.79,12.074,32.888,7.383,19.469-21.481,38.938-7.383,23.493,19.456,39.6,11.407,24.826-27.518,39.6-20.815,8.049,41.014,9.395,57.676-.679,58.407,2.679,63.777,37.592,1.282,37.592,1.282" transform="translate(56.863 -69.422)"/>
      <path id="Path_19512" data-name="Path 19512" class="cls-15" d="M347.4,234.163s-3.755-6.126-9.292-4.524c-5.857,1.692-8.882,10.061-10.254,15.278s-2.294,10.856-4.806,15.714c0,0-11.1-.192-17.29-1.987a146.355,146.355,0,0,1-13.919-5.127s-2.192-3.063-3.743-3.666-5.575-1.782-5.87-.859,4.665,3.96,4.665,3.96-9.228,1.282-10.151,2.269,6.524,3.935,6.524,3.935,2.781.9,9.549-.718c0,0,24.826,15.765,29.774,17.572s7.69,2.384,11.061-4.127,14.56-22.66,16.342-29.159" transform="translate(49.082 -75.399)"/>
      <path id="Path_19513" data-name="Path 19513" class="cls-7" d="M298.274,251.883c-3.627-1.359-6.409-2.563-6.409-2.563s-2.192-3.063-3.743-3.666-5.575-1.782-5.87-.859,4.665,3.96,4.665,3.96-9.228,1.282-10.151,2.269,6.524,3.935,6.524,3.935,2.781.9,9.549-.718l3.473,2.192Z" transform="translate(49.091 -71.151)"/>
      <path id="Path_19514" data-name="Path 19514" class="cls-7" d="M368.5,265.316a14.1,14.1,0,0,1-1.423-5.127c0-2.333,4.345-5.665,5.127-6.5s1.577-.743,1.743.423a4.794,4.794,0,0,1-1.5,3.5,3.922,3.922,0,0,0-1.346,2.012c-.077.564,1.436,3.409.679,5.242S368.913,267.226,368.5,265.316Z" transform="translate(74.554 -68.704)"/>
      <path id="Path_19515" data-name="Path 19515" class="cls-7" d="M370.992,257.437s-3.576,6.6-1.5,8.972,4.089-5.332,4.473-7.459S372.312,254.681,370.992,257.437Z" transform="translate(75.051 -67.861)"/>
      <path id="Path_19516" data-name="Path 19516" class="cls-7" d="M373.292,259.295s-3.576,6.6-1.5,8.972,4.089-5.332,4.473-7.46S374.612,256.462,373.292,259.295Z" transform="translate(75.699 -67.348)"/>
      <path id="Path_19517" data-name="Path 19517" class="cls-7" d="M375.822,259.718s-3.576,6.6-1.5,8.972,4.089-5.332,4.473-7.46S377.142,256.95,375.822,259.718Z" transform="translate(76.412 -67.22)"/>
      <path id="Path_19518" data-name="Path 19518" class="cls-7" d="M379.042,259.716s-3.332,5.127-1.512,7.062,3.781-4.153,4.165-5.909S380.272,257.409,379.042,259.716Z" transform="translate(77.344 -67.167)"/>
      <path id="Path_19519" data-name="Path 19519" class="cls-7" d="M438.514,257.639s3.576,6.6,1.5,8.972-4.089-5.345-4.473-7.472S437.194,254.871,438.514,257.639Z" transform="translate(93.826 -67.807)"/>
      <path id="Path_19520" data-name="Path 19520" class="cls-7" d="M436.214,259.438s3.576,6.6,1.5,8.972-4.089-5.345-4.473-7.472S434.894,256.682,436.214,259.438Z" transform="translate(93.178 -67.299)"/>
      <path id="Path_19521" data-name="Path 19521" class="cls-7" d="M433.661,259.92s3.576,6.6,1.5,8.972-4.089-5.332-4.46-7.472S432.379,257.151,433.661,259.92Z" transform="translate(92.463 -67.165)"/>
      <path id="Path_19522" data-name="Path 19522" class="cls-7" d="M430.371,259.916s3.332,5.191,1.512,7.062-3.781-4.153-4.153-5.909S429.141,257.609,430.371,259.916Z" transform="translate(91.625 -67.11)"/>
      <path id="Path_19523" data-name="Path 19523" class="cls-7" d="M88.057,317.425v7.28a23.07,23.07,0,0,0-5.293,9.715c-1.551,5.947-6.408,31.543-5.127,32.209s13.342,3.422,17.188,2.845c4.409-.666,8.164-.436,5.947-2.871S86.9,357.362,86.9,357.362s12.817-18.533,15.662-25.378,3.307-17.431,3.307-17.431l-17.2-.654Z" transform="translate(-7.041 -51.588)"/>
      <path id="Path_19524" data-name="Path 19524" class="cls-10" d="M94.827,359.922c4.409-.666,8.164-.436,5.947-2.871s-13.868-9.241-13.868-9.241l-.436,2.64-8.4-1.025c-.615,4.281-.884,7.421-.436,7.69C79.01,357.73,90.982,360.5,94.827,359.922Z" transform="translate(-7.043 -42.036)"/>
      <path id="Path_19525" data-name="Path 19525" class="cls-7" d="M118.876,321.274l1.987,3.538a12.907,12.907,0,0,0-.666,10.369c1.987,6.178,6.626,28.9,6.626,30.222s2.858,2.2,5.127,2.2,8.549.436,9.433.436,7.28,1.1,9.485-.218-2.807-3.973-6.114-5.511-10.587-5.511-10.587-5.511,1.756-18.1,1.756-26.044,1.769-10.587-.654-15.444-17.649,2.217-17.649,2.217Z" transform="translate(4.282 -51.67)"/>
      <path id="Path_19526" data-name="Path 19526" class="cls-10" d="M142.819,352.821c-3.307-1.551-10.587-5.511-10.587-5.511l-.884,3.307L124.26,351.9c.423,2.2.692,3.717.692,4.025,0,1.282,2.858,2.2,5.127,2.2s8.549.436,9.433.436,7.28,1.1,9.485-.218S146.126,354.359,142.819,352.821Z" transform="translate(6.153 -42.177)"/>
      <path id="Path_19527" data-name="Path 19527" class="cls-7" d="M114.923,207.361a60.7,60.7,0,0,0-5.909-8.382c-3.038-3.422-12.561-3.23-16.739,1.282s-2.858,12.561-1.282,14.842,4.755,12.945,4.755,12.945l.756,7.613,17.7,6.28-3.614-12.368s6.857-1.282,7.421-3.422-1.141-9.331-1.141-9.331,2.281-1.525,2.089-2.858S114.923,207.361,114.923,207.361Z" transform="translate(-3.646 -84.626)"/>
      <path id="Path_19528" data-name="Path 19528" class="cls-8" d="M95.328,215.944s3.025,2.563,4.678-.372,2.909-5.806,2.909-8.293-6.216-4.55-2.076-6.216,7.126,2.038,8.972-1.679.167-4.114-9.779-4.114-14.919,4.973-12.817,11.189a83.71,83.71,0,0,0,6.216,13.253Z" transform="translate(-4.417 -85.006)"/>
      <path id="Path_19529" data-name="Path 19529" class="cls-12" d="M111.86,209.475a4.755,4.755,0,1,1-4.755-4.755,4.755,4.755,0,0,1,4.755,4.755Z" transform="translate(-0.019 -82.344)"/>
      <path id="Path_19530" data-name="Path 19530" class="cls-12" d="M109.23,205.216a4.639,4.639,0,0,1,1.743-.346,4.473,4.473,0,0,1,2.166,8.382" transform="translate(1.919 -82.301)"/>
      <line id="Line_53" data-name="Line 53" class="cls-7" x1="11.42" y2="3.807" transform="translate(90.911 127.131)"/>
      <path id="Path_19531" data-name="Path 19531" class="cls-7" d="M97.276,214.2s-2.281-4.755-4.563-3.845-1.141,8.382,1.141,9.138a4.922,4.922,0,0,0,4.371-1.141s1.91,4,4.191,5.127" transform="translate(-3.084 -80.789)"/>
      <path id="Path_19532" data-name="Path 19532" class="cls-15" d="M85.568,282.282l-1.423,18.226-4.255,26.98s9.946,7.806,19.225,7.806,11.83-1.179,11.83-1.179l5.2-27.685,5.2,29.107s10.254-1.653,17.047-3.32a44.961,44.961,0,0,0,13.253-6.152l-13.727-35.734L134.952,271.9s-15.38,1.423-24.621,1.9S88.8,271.9,88.8,271.9Z" transform="translate(-6.346 -63.419)"/>
      <path id="Path_19533" data-name="Path 19533" class="cls-10" d="M94.471,223.187s21.789,7.6,28.518,14.983c3.717,4.1,7.882,32.171,9.382,39.028s4.114,20.507,4.114,20.507-13.291,6-23.57,6.216-30-4.5-30-4.5,2.346-30.415,2.346-44.552.218-23.365,2.563-27.864C87.832,227.045,91.69,222.751,94.471,223.187Z" transform="translate(-5.496 -77.15)"/>
      <path id="Path_19534" data-name="Path 19534" class="cls-12" d="M88.4,284.38s1.179,19.879,0,27.223A56.473,56.473,0,0,1,84.14,325.33" transform="translate(-5.149 -59.904)"/>
      <path id="Path_19535" data-name="Path 19535" class="cls-12" d="M87.83,293.539a10.856,10.856,0,0,0,7.1-8.049" transform="translate(-4.11 -59.591)"/>
      <path id="Path_19536" data-name="Path 19536" class="cls-12" d="M80.81,312.27s11.843,10.177,30.3,6.409" transform="translate(-6.087 -52.047)"/>
      <path id="Path_19537" data-name="Path 19537" class="cls-12" d="M111.84,318.6s19.4-2.128,27.928-7.806" transform="translate(2.654 -52.464)"/>
      <path id="Path_19538" data-name="Path 19538" class="cls-8" d="M184.559,216.4s-1.871,1.384-8.4,6.152-1.384,11.971-1.384,11.971-4.665.731-10.894,7.28,2.781,17.79,11.2,19.546,18.264-8.664,21.212-18.328-.948-24.237-2.909-27.249S184.559,216.4,184.559,216.4Z" transform="translate(16.731 -79.566)"/>
      <path id="Path_19539" data-name="Path 19539" class="cls-8" d="M204.835,219.434s3.243-5.011.308-12.279-11.7-10.587-20.238-5.319a15.034,15.034,0,0,0-6.78,17.008c.833,3.358,5.037,8.523,5.921,8.6s8.562,2.871,13.8.423S204.835,219.434,204.835,219.434Z" transform="translate(21.166 -83.882)"/>
      <path id="Path_19540" data-name="Path 19540" class="cls-10" d="M169.41,347.242s6.088,9.472,16.662,11.087,1.064-7.87-.718-9.305S170.846,344.487,169.41,347.242Z" transform="translate(18.871 -42.506)"/>
      <path id="Path_19541" data-name="Path 19541" class="cls-10" d="M216.716,349.07s11.625,2.858,10.728,5.37-10.369,2.32-15.906.884-10.741-3.576-10.023-5.9S216.716,349.07,216.716,349.07Z" transform="translate(27.896 -41.899)"/>
      <path id="Path_19542" data-name="Path 19542" class="cls-15" d="M193.015,229.7s-15.56,2.281-18.405,7.78,1.166,35.452,1.166,35.452-6.639,14.65-6.729,24.083,4.114,26.031,3.781,30.171-4.588,51.268-4.588,52.55,8.972,4.153,21.9,5.691,37.669-3.063,37.669-3.063-.487-27.813.807-44.4-.551-31.491-3.845-37.682S206.14,271.8,206.14,271.8s7.434-13.483,7.9-19.379-1.935-8.972-7.549-15.752A19.572,19.572,0,0,0,193.015,229.7Z" transform="translate(18.542 -75.307)"/>
      <path id="Path_19543" data-name="Path 19543" class="cls-11" d="M206,270.487s7.434-13.483,7.9-19.379-1.935-8.972-7.549-15.752c-.269-.333-.551-.628-.833-.936l-.205.192c-5.768,9.42-24.839,25.519-30.517,30.21.436,4.012.807,6.78.807,6.78s-6.639,14.65-6.729,24.083a86.01,86.01,0,0,0,1.282,12.817c13.471-7.69,31.491-22.084,41.245-30.107C208.346,273.883,206,270.487,206,270.487Z" transform="translate(18.719 -73.977)"/>
      <path id="Path_19544" data-name="Path 19544" class="cls-7" d="M185.33,221.138a96.231,96.231,0,0,1,.7,10.6c-.205,2.627.641,8.626,5.127,10.51s7.306-.743,7.293-3.384a26.659,26.659,0,0,0-1.282-6.408l.128-7.242S189.56,220.369,185.33,221.138Z" transform="translate(23.356 -77.742)"/>
      <path id="Path_19545" data-name="Path 19545" class="cls-7" d="M182.937,220.974s-3.294-2.9-3.4,1.282,3.743,5.563,4.588,5.845a2.833,2.833,0,0,0,2.025-.5s5.973,5.127,10.766,5.46,6.742-1.884,7.87-10.587-7.857-17.534-7.857-17.534S189.243,219.116,182.937,220.974Z" transform="translate(21.724 -82.282)"/>
      <path id="Path_19546" data-name="Path 19546" class="cls-7" d="M125.012,282.842a11.535,11.535,0,0,1,.718-4.358c.795-1.743,5.127-2.743,6.088-3.076s1.448,0,1.166.91a3.973,3.973,0,0,1-2.32,2.1,3.256,3.256,0,0,0-1.7,1.038c-.244.41-.09,3.038-1.282,4.153S124.615,284.418,125.012,282.842Z" transform="translate(6.349 -62.467)"/>
      <path id="Path_19547" data-name="Path 19547" class="cls-14" d="M252.1,251.143s-15.38-2.012-22.161,8.728-19.456,48.32-42.95,54.37-30.21-42.3-44.308-40.95c-13.432,1.282-22.814,0-30.876,14.765-4.307,7.908-25.839,94.256-36.016,95.14-32.414,2.833-53.28.987-53.28.987" transform="translate(-22.51 -69.309)"/>
      <path id="Path_19548" data-name="Path 19548" class="cls-10" d="M98.183,223.739s-3.55-1.423-8.293,1.41S72.383,259,73.331,262.318s14.432,9.472,22.007,11.6,21.3,4.742,21.3,4.742,4.255,6.626,5.678,6.857a30.833,30.833,0,0,0,6.152-.7s2.563,2.128,3.55-.243-.948-5.434-3.076-7.805-11.125-3.55-11.125-3.55L93.428,256.4l10.254-18.931" transform="translate(-8.208 -77.087)"/>
      <path id="Path_19549" data-name="Path 19549" class="cls-7" d="M122.32,280.8a30.847,30.847,0,0,0,6.152-.7s2.563,2.128,3.55-.244-.948-5.434-3.076-7.806-11.125-3.55-11.125-3.55l-24.391-16.8,3.64-6.78c-9.113-5.678-15.162-5.255-18.431-4.114-3.268,7.844-5.755,15.278-5.319,16.8.948,3.32,14.432,9.472,22.007,11.6s21.3,4.742,21.3,4.742S120.9,280.566,122.32,280.8Z" transform="translate(-8.211 -72.38)"/>
      <path id="Path_19550" data-name="Path 19550" class="cls-10" d="M240.264,257.3c-1.038-11.189-6.408-20.379-12.817-24.032l-.205-2.281L210.5,232.541c-9.42.872-15.919,13.8-14.522,28.877s10.164,26.57,19.584,25.634L232.3,285.5l-.218-2.281C237.726,278.5,241.3,268.492,240.264,257.3Z" transform="translate(26.303 -74.944)"/>
      <path id="Path_19551" data-name="Path 19551" class="cls-7" d="M244.322,257.082c-1.089-11.753-6.408-21.43-13.189-25.275l-.231-2.4-7.165.666c-9.895.923-16.726,14.5-15.265,30.338s10.689,27.928,20.584,27.005l7.165-.666-.218-2.4C241.926,279.306,245.412,268.8,244.322,257.082Z" transform="translate(29.82 -75.389)"/>
      <path id="Path_19552" data-name="Path 19552" class="cls-7" d="M249.933,256.395c1.474,15.842-5.358,29.415-15.265,30.338s-19.123-11.176-20.623-27.005S219.4,230.248,229.3,229.39,248.446,240.566,249.933,256.395Z" transform="translate(31.387 -75.407)"/>
      <path id="Path_19553" data-name="Path 19553" class="cls-11" d="M254.826,244.537l-27.8,2.563a2.974,2.974,0,0,1-3.243-2.691h0a2.974,2.974,0,0,1,2.692-3.243l27.8-2.563a2.974,2.974,0,0,1,3.243,2.692h0a2.973,2.973,0,0,1-2.692,3.243Z" transform="translate(34.184 -72.803)"/>
      <path id="Path_19554" data-name="Path 19554" class="cls-11" d="M256.436,261.727l-27.8,2.563a2.973,2.973,0,0,1-3.243-2.691h0a2.973,2.973,0,0,1,2.692-3.243l27.8-2.563a3,3,0,0,1,3.243,2.692h0a2.973,2.973,0,0,1-2.692,3.243Z" transform="translate(34.638 -67.96)"/>
      <path id="Path_19555" data-name="Path 19555" class="cls-10" d="M184.079,231.33s-6.69,1.282-9.856,5.127-9.664,33.516-8.164,36.926,25.531,7.69,32.952,8.305a106.594,106.594,0,0,0,17.867-.795s6.408-.167,8.164-.461,4.986-2.025,5.037-2.679-.269-2.217-2.666-2.41-7.536-1.91-8.19-1.961a41.793,41.793,0,0,1,4.678-.949s.333-1.282-2.307-1.282-5.037-.179-6.037,1.282a22.045,22.045,0,0,0-1.82,3.589s-14.8,1.038-22.84-2.884-10.574-5.229-10.574-5.229l5.768-23.071" transform="translate(17.865 -74.848)"/>
      <path id="Path_19556" data-name="Path 19556" class="cls-7" d="M225.012,276.3c1.782-.295,4.986-2.025,5.037-2.679s-.269-2.217-2.666-2.41-7.536-1.91-8.19-1.961a41.786,41.786,0,0,1,4.678-.948s.333-1.282-2.307-1.282-5.037-.18-6.037,1.282a22.046,22.046,0,0,0-1.82,3.589s-14.8,1.038-22.84-2.884-10.574-5.229-10.574-5.229l3.512-14.1a50.24,50.24,0,0,0-14.317-3.55c-2.4,9.664-4.358,21.045-3.461,23.071,1.487,3.409,25.531,7.69,32.952,8.305a106.6,106.6,0,0,0,17.867-.795S223.269,276.6,225.012,276.3Z" transform="translate(17.856 -70.679)"/>
      <path id="Path_19557" data-name="Path 19557" class="cls-7" d="M128.478,279.36s-4.947,3.7-4.191,6.152,4.883-2.563,5.909-4.037S130.414,277.771,128.478,279.36Z" transform="translate(6.138 -61.472)"/>
      <path id="Path_19558" data-name="Path 19558" class="cls-7" d="M129.238,281.953s-4.935,3.7-4.191,6.152,4.9-2.563,5.909-4.037S131.173,280.338,129.238,281.953Z" transform="translate(6.353 -60.745)"/>
      <path id="Path_19559" data-name="Path 19559" class="cls-7" d="M131.066,283.633s-4.935,3.7-4.178,6.152,4.883-2.563,5.909-4.037S133.014,282.018,131.066,283.633Z" transform="translate(6.87 -60.272)"/>
      <path id="Path_19560" data-name="Path 19560" class="cls-7" d="M132.438,284.966s-4.268,2.743-3.55,4.768,4.242-1.807,5.127-2.986S134.181,283.671,132.438,284.966Z" transform="translate(7.433 -59.861)"/>
      <path id="Path_19561" data-name="Path 19561" class="cls-8" d="M176.18,147.012V128.158c0-11.33,7.831-18.918,19.546-18.918s19.636,7.588,19.636,18.918v18.828c0,11.407-7.831,18.995-19.636,18.995S176.18,158.419,176.18,147.012Zm31.581.32V128.158c0-7.357-4.832-12.266-12.035-12.266S183.78,120.8,183.78,128.158v19.225c0,7.28,4.832,12.112,11.945,12.112s12.035-4.883,12.035-12.112Z" transform="translate(20.778 -109.24)"/>
      <path id="Path_19562" data-name="Path 19562" class="cls-8" d="M215.524,151.362a32.043,32.043,0,0,1-1.423-9.651,30.76,30.76,0,0,1,1.346-9.5c2.294-6.972,8.4-11.164,16.457-11.164,7.69,0,13.624,4.191,16,11.087a29.915,29.915,0,0,1,1.423,9.5,31.451,31.451,0,0,1-1.423,9.728c-2.371,7.049-8.4,11.241-16.072,11.241C223.919,162.6,217.818,158.411,215.524,151.362Zm25.249-2.128a29.323,29.323,0,0,0,.872-7.447,30.238,30.238,0,0,0-.795-7.357,9.485,9.485,0,0,0-18.2,0,26.466,26.466,0,0,0-.872,7.357,27.98,27.98,0,0,0,.872,7.447,9.433,9.433,0,0,0,18.123,0Z" transform="translate(31.459 -105.913)"/>
      <path id="Path_19563" data-name="Path 19563" class="cls-8" d="M283.315,141.942a32.4,32.4,0,0,1-1.192,9.587c-2.14,6.806-7.2,11.074-15.2,11.074a11.958,11.958,0,0,1-9.177-4.037c-.243-.231-.474-.154-.474.167v17.175a1.115,1.115,0,0,1-1.192,1.179h-5.217a1.115,1.115,0,0,1-1.192-1.179V122.871a1.128,1.128,0,0,1,1.192-1.192h5.216a1.128,1.128,0,0,1,1.192,1.192v2.064c0,.308.231.474.474.231a11.779,11.779,0,0,1,9.177-4.114c7.767,0,12.753,4.114,14.957,10.766A29.852,29.852,0,0,1,283.315,141.942Zm-7.6-.154a20.7,20.7,0,0,0-1.987-9.818,8.023,8.023,0,0,0-7.588-4.345,7.613,7.613,0,0,0-6.9,4.268c-1.282,2.294-1.9,5.627-1.9,9.972s.718,7.754,2.064,10.138a7.357,7.357,0,0,0,6.729,4.037,7.947,7.947,0,0,0,7.037-3.845,18.738,18.738,0,0,0,2.551-10.407Z" transform="translate(41.48 -105.914)"/>
      <path id="Path_19564" data-name="Path 19564" class="cls-8" d="M282.09,151.549v-.474a1.128,1.128,0,0,1,1.192-1.192h4.909c.7,0,1.179.244,1.179.551v.641c0,2.845,3.486,5.537,8.472,5.537s8.075-2.371,8.075-5.46c0-3.409-3.96-4.512-8.7-5.857-6.972-1.9-14.8-4.358-14.8-12.509,0-7.2,6.178-11.535,15.2-11.535,9.331,0,15.38,4.819,15.38,11.394,0,.628-.474,1.025-1.192,1.025h-4.742c-.718,0-1.192-.231-1.192-.551v-.474c0-2.935-3.089-5.383-8.382-5.383-4.6,0-7.844,1.82-7.844,4.986,0,3.409,3.845,4.588,8.869,6.011,6.806,1.82,14.957,4.127,14.957,12.432,0,7.2-6.178,11.715-15.6,11.715S282.09,157.56,282.09,151.549Z" transform="translate(50.612 -105.857)"/>
      <path id="Path_19565" data-name="Path 19565" class="cls-8" d="M314.82,159.441a5.768,5.768,0,1,1,11.535,0,5.6,5.6,0,0,1-5.78,5.46,5.486,5.486,0,0,1-5.755-5.46Zm2.768-13.842-.7-34.606a1.128,1.128,0,0,1,1.192-1.192h5.216a1.128,1.128,0,0,1,1.192,1.192l-.641,34.606a1.115,1.115,0,0,1-1.179,1.179h-3.845a1.128,1.128,0,0,1-1.2-1.179Z" transform="translate(59.833 -109.083)"/>
    </g>
  </g>
</svg>
